<svg xmlns="http://www.w3.org/2000/svg" viewBox="0 0 64 64">
  <defs>
    <linearGradient id="brand" x1="0" y1="0" x2="1" y2="1">
      <stop offset="0%" stop-color="#8C7B70" />
      <stop offset="100%" stop-color="#9E8F85" />
    </linearGradient>
  </defs>
  <rect x="4" y="4" width="56" height="56" rx="14" fill="url(#brand)" />
  <path
    d="M32 16c3 0 5.4 2.4 5.4 5.4 0 2.2-1.3 4-3.2 4.9l4.6 3.1h5.6l5.6 6.8-3.8 3.2-2.8-3.3v14.3H20.6V36.1l-2.8 3.3-3.8-3.2 5.6-6.8h5.6l4.6-3.1c-1.9-.9-3.2-2.7-3.2-4.9 0-3 2.4-5.4 5.4-5.4zm0 4.4c-.6 0-1 .4-1 1s.4 1 1 1 1-.4 1-1-.4-1-1-1z"
    fill="#ffffff" />
</svg>
